<mxfile host="app.diagrams.net" modified="2021-11-05T14:56:14.539Z" agent="5.0 (Macintosh; Intel Mac OS X 10_15_7) AppleWebKit/537.36 (KHTML, like Gecko) Chrome/95.0.4638.69 Safari/537.36" etag="WtgL6F4ETkZ8J9vA0syq" version="15.6.8" type="github">
  <diagram id="DH9oLqAvsHviRjUrgdUJ" name="Page-1">
    <mxGraphModel dx="1426" dy="794" grid="1" gridSize="10" guides="1" tooltips="1" connect="1" arrows="1" fold="1" page="1" pageScale="1" pageWidth="1169" pageHeight="827" math="0" shadow="0">
      <root>
        <mxCell id="0" />
        <mxCell id="1" parent="0" />
        <mxCell id="FejR-0xQScrpxxmyeNhJ-30" value="&lt;br&gt;&lt;br&gt;&lt;br&gt;&lt;br&gt;&lt;br&gt;&lt;br&gt;&lt;br&gt;&lt;br&gt;&lt;br&gt;&lt;br&gt;Vehicle Combination" style="rounded=0;whiteSpace=wrap;html=1;fillColor=#d5e8d4;strokeColor=#82b366;" parent="1" vertex="1">
          <mxGeometry x="16" y="100" width="150" height="390" as="geometry" />
        </mxCell>
        <mxCell id="pBS9UwQSY9ReTo89sHu9-2" value="Lookup" style="edgeStyle=orthogonalEdgeStyle;rounded=0;orthogonalLoop=1;jettySize=auto;html=1;exitX=0.5;exitY=0;exitDx=0;exitDy=0;entryX=0.5;entryY=1;entryDx=0;entryDy=0;" parent="1" source="FejR-0xQScrpxxmyeNhJ-9" target="FejR-0xQScrpxxmyeNhJ-2" edge="1">
          <mxGeometry relative="1" as="geometry" />
        </mxCell>
        <mxCell id="FejR-0xQScrpxxmyeNhJ-1" value="Route &lt;br&gt;(Custom Object)" style="rounded=0;whiteSpace=wrap;html=1;fillColor=#f5f5f5;fontColor=#333333;strokeColor=#666666;" parent="1" vertex="1">
          <mxGeometry x="240" y="260" width="120" height="60" as="geometry" />
        </mxCell>
        <mxCell id="FejR-0xQScrpxxmyeNhJ-2" value="Customer (Account)" style="rounded=0;whiteSpace=wrap;html=1;fillColor=#f5f5f5;fontColor=#333333;strokeColor=#666666;" parent="1" vertex="1">
          <mxGeometry x="474" y="120" width="120" height="60" as="geometry" />
        </mxCell>
        <mxCell id="FejR-0xQScrpxxmyeNhJ-14" value="Lookup" style="edgeStyle=orthogonalEdgeStyle;rounded=0;orthogonalLoop=1;jettySize=auto;html=1;exitX=1;exitY=0.5;exitDx=0;exitDy=0;entryX=0;entryY=0.5;entryDx=0;entryDy=0;" parent="1" source="FejR-0xQScrpxxmyeNhJ-9" target="FejR-0xQScrpxxmyeNhJ-10" edge="1">
          <mxGeometry relative="1" as="geometry" />
        </mxCell>
        <mxCell id="FejR-0xQScrpxxmyeNhJ-17" value="" style="edgeStyle=orthogonalEdgeStyle;rounded=0;orthogonalLoop=1;jettySize=auto;html=1;exitX=0.5;exitY=1;exitDx=0;exitDy=0;" parent="1" source="FejR-0xQScrpxxmyeNhJ-9" target="FejR-0xQScrpxxmyeNhJ-16" edge="1">
          <mxGeometry relative="1" as="geometry" />
        </mxCell>
        <mxCell id="FejR-0xQScrpxxmyeNhJ-18" value="Lookup" style="edgeStyle=orthogonalEdgeStyle;rounded=0;orthogonalLoop=1;jettySize=auto;html=1;exitX=0.5;exitY=1;exitDx=0;exitDy=0;entryX=0.5;entryY=0;entryDx=0;entryDy=0;" parent="1" source="FejR-0xQScrpxxmyeNhJ-9" target="FejR-0xQScrpxxmyeNhJ-15" edge="1">
          <mxGeometry x="-0.092" relative="1" as="geometry">
            <mxPoint as="offset" />
          </mxGeometry>
        </mxCell>
        <mxCell id="pBS9UwQSY9ReTo89sHu9-4" value="Lookup" style="edgeStyle=orthogonalEdgeStyle;rounded=0;orthogonalLoop=1;jettySize=auto;html=1;exitX=0;exitY=0.5;exitDx=0;exitDy=0;entryX=1;entryY=0.5;entryDx=0;entryDy=0;" parent="1" source="FejR-0xQScrpxxmyeNhJ-9" target="FejR-0xQScrpxxmyeNhJ-1" edge="1">
          <mxGeometry relative="1" as="geometry" />
        </mxCell>
        <mxCell id="MKs6lC57vSTT5hIa3Cp5-5" style="edgeStyle=orthogonalEdgeStyle;rounded=0;orthogonalLoop=1;jettySize=auto;html=1;exitX=1;exitY=0.5;exitDx=0;exitDy=0;entryX=0;entryY=0.5;entryDx=0;entryDy=0;" parent="1" source="FejR-0xQScrpxxmyeNhJ-9" target="MKs6lC57vSTT5hIa3Cp5-3" edge="1">
          <mxGeometry relative="1" as="geometry" />
        </mxCell>
        <mxCell id="ZmgB5vF48S9KXjoZEZtJ-3" style="edgeStyle=orthogonalEdgeStyle;rounded=0;orthogonalLoop=1;jettySize=auto;html=1;exitX=0.5;exitY=1;exitDx=0;exitDy=0;entryX=0.5;entryY=0;entryDx=0;entryDy=0;" parent="1" source="FejR-0xQScrpxxmyeNhJ-9" target="ZmgB5vF48S9KXjoZEZtJ-1" edge="1">
          <mxGeometry relative="1" as="geometry" />
        </mxCell>
        <mxCell id="FejR-0xQScrpxxmyeNhJ-9" value="TransportOrder&lt;br&gt;(Custom Object)&lt;br&gt;&lt;br&gt;Record Types:&lt;br&gt;Trade Transport&lt;br&gt;Shipping Transport&lt;br&gt;" style="rounded=0;whiteSpace=wrap;html=1;fillColor=#f5f5f5;fontColor=#333333;strokeColor=#666666;" parent="1" vertex="1">
          <mxGeometry x="474" y="230" width="120" height="120" as="geometry" />
        </mxCell>
        <mxCell id="FejR-0xQScrpxxmyeNhJ-10" value="Product2" style="rounded=0;whiteSpace=wrap;html=1;fillColor=#F5F5F5;fontColor=#333333;strokeColor=#666666;" parent="1" vertex="1">
          <mxGeometry x="700" y="220" width="120" height="60" as="geometry" />
        </mxCell>
        <mxCell id="FejR-0xQScrpxxmyeNhJ-15" value="End&lt;br&gt;(Contact Point)" style="rounded=0;whiteSpace=wrap;html=1;fillColor=#F5F5F5;" parent="1" vertex="1">
          <mxGeometry x="400" y="410" width="120" height="60" as="geometry" />
        </mxCell>
        <mxCell id="FejR-0xQScrpxxmyeNhJ-16" value="Start&lt;br&gt;(Contact Point)" style="rounded=0;whiteSpace=wrap;html=1;fillColor=#F5F5F5;" parent="1" vertex="1">
          <mxGeometry x="250" y="410" width="120" height="60" as="geometry" />
        </mxCell>
        <mxCell id="FejR-0xQScrpxxmyeNhJ-27" value="Lookup" style="edgeStyle=orthogonalEdgeStyle;rounded=0;orthogonalLoop=1;jettySize=auto;html=1;exitX=1;exitY=0.5;exitDx=0;exitDy=0;entryX=0;entryY=0.5;entryDx=0;entryDy=0;" parent="1" source="FejR-0xQScrpxxmyeNhJ-19" target="FejR-0xQScrpxxmyeNhJ-1" edge="1">
          <mxGeometry relative="1" as="geometry" />
        </mxCell>
        <mxCell id="FejR-0xQScrpxxmyeNhJ-19" value="Trailer (Vehicle)" style="rounded=0;whiteSpace=wrap;html=1;fillColor=#F5F5F5;" parent="1" vertex="1">
          <mxGeometry x="31" y="410" width="120" height="60" as="geometry" />
        </mxCell>
        <mxCell id="FejR-0xQScrpxxmyeNhJ-25" value="Lookup" style="edgeStyle=orthogonalEdgeStyle;rounded=0;orthogonalLoop=1;jettySize=auto;html=1;exitX=1;exitY=0.5;exitDx=0;exitDy=0;entryX=0;entryY=0.5;entryDx=0;entryDy=0;" parent="1" source="FejR-0xQScrpxxmyeNhJ-20" target="FejR-0xQScrpxxmyeNhJ-1" edge="1">
          <mxGeometry relative="1" as="geometry" />
        </mxCell>
        <mxCell id="FejR-0xQScrpxxmyeNhJ-20" value="Truck (Vehicle)" style="rounded=0;whiteSpace=wrap;html=1;fillColor=#F5F5F5;" parent="1" vertex="1">
          <mxGeometry x="30" y="260" width="120" height="60" as="geometry" />
        </mxCell>
        <mxCell id="FejR-0xQScrpxxmyeNhJ-26" value="Lookup" style="edgeStyle=orthogonalEdgeStyle;rounded=0;orthogonalLoop=1;jettySize=auto;html=1;exitX=1;exitY=0.5;exitDx=0;exitDy=0;entryX=0;entryY=0.5;entryDx=0;entryDy=0;" parent="1" source="FejR-0xQScrpxxmyeNhJ-21" target="FejR-0xQScrpxxmyeNhJ-1" edge="1">
          <mxGeometry relative="1" as="geometry" />
        </mxCell>
        <mxCell id="FejR-0xQScrpxxmyeNhJ-21" value="Driver (Contact)" style="rounded=0;whiteSpace=wrap;html=1;fillColor=#F5F5F5;" parent="1" vertex="1">
          <mxGeometry x="30" y="120" width="120" height="60" as="geometry" />
        </mxCell>
        <mxCell id="MKs6lC57vSTT5hIa3Cp5-3" value="Agreement&lt;br&gt;(Custom Object)" style="rounded=0;whiteSpace=wrap;html=1;fillColor=#f5f5f5;fontColor=#333333;strokeColor=#666666;" parent="1" vertex="1">
          <mxGeometry x="700" y="290" width="120" height="60" as="geometry" />
        </mxCell>
        <mxCell id="ZmgB5vF48S9KXjoZEZtJ-9" style="edgeStyle=orthogonalEdgeStyle;rounded=0;orthogonalLoop=1;jettySize=auto;html=1;exitX=0.5;exitY=1;exitDx=0;exitDy=0;entryX=0.5;entryY=0;entryDx=0;entryDy=0;" parent="1" source="ZmgB5vF48S9KXjoZEZtJ-1" target="ZmgB5vF48S9KXjoZEZtJ-5" edge="1">
          <mxGeometry relative="1" as="geometry" />
        </mxCell>
        <mxCell id="PfezEYeEp3xhCS2_gsfF-1" style="edgeStyle=orthogonalEdgeStyle;rounded=0;orthogonalLoop=1;jettySize=auto;html=1;exitX=0.5;exitY=1;exitDx=0;exitDy=0;entryX=0.5;entryY=0;entryDx=0;entryDy=0;" parent="1" source="ZmgB5vF48S9KXjoZEZtJ-1" target="ZmgB5vF48S9KXjoZEZtJ-8" edge="1">
          <mxGeometry relative="1" as="geometry" />
        </mxCell>
        <mxCell id="ZmgB5vF48S9KXjoZEZtJ-1" value="Trade&lt;br&gt;(Custom Object)&lt;br&gt;Record Types:&lt;br&gt;Purchase&lt;br&gt;Sale" style="rounded=0;whiteSpace=wrap;html=1;fillColor=#f5f5f5;fontColor=#333333;strokeColor=#666666;" parent="1" vertex="1">
          <mxGeometry x="550" y="410" width="120" height="80" as="geometry" />
        </mxCell>
        <mxCell id="ZmgB5vF48S9KXjoZEZtJ-5" value="Buyer&lt;br&gt;(Account)" style="rounded=0;whiteSpace=wrap;html=1;fillColor=#f5f5f5;fontColor=#333333;strokeColor=#666666;" parent="1" vertex="1">
          <mxGeometry x="450" y="530" width="120" height="60" as="geometry" />
        </mxCell>
        <mxCell id="ZmgB5vF48S9KXjoZEZtJ-8" value="Supplier&lt;br&gt;(Account)" style="rounded=0;whiteSpace=wrap;html=1;fillColor=#f5f5f5;fontColor=#333333;strokeColor=#666666;" parent="1" vertex="1">
          <mxGeometry x="650" y="530" width="120" height="60" as="geometry" />
        </mxCell>
        <mxCell id="HFyh5ZDPGqAs7j3LjyPs-2" style="edgeStyle=orthogonalEdgeStyle;rounded=0;orthogonalLoop=1;jettySize=auto;html=1;exitX=0;exitY=0.5;exitDx=0;exitDy=0;entryX=1.008;entryY=0.183;entryDx=0;entryDy=0;entryPerimeter=0;" edge="1" parent="1" source="HFyh5ZDPGqAs7j3LjyPs-1" target="FejR-0xQScrpxxmyeNhJ-9">
          <mxGeometry relative="1" as="geometry" />
        </mxCell>
        <mxCell id="HFyh5ZDPGqAs7j3LjyPs-1" value="Additional Cost" style="rounded=0;whiteSpace=wrap;html=1;fillColor=#f5f5f5;fontColor=#333333;strokeColor=#666666;" vertex="1" parent="1">
          <mxGeometry x="680" y="120" width="120" height="60" as="geometry" />
        </mxCell>
      </root>
    </mxGraphModel>
  </diagram>
</mxfile>
